<svg width="16" height="15" viewBox="0 0 16 15" fill="none" xmlns="http://www.w3.org/2000/svg">
<path d="M5.19967 1.25H10.7997C12.933 1.25 14.6663 2.875 14.6663 4.875V10.125C14.6663 11.0864 14.259 12.0084 13.5338 12.6883C12.8087 13.3681 11.8252 13.75 10.7997 13.75H5.19967C3.06634 13.75 1.33301 12.125 1.33301 10.125V4.875C1.33301 3.91359 1.74039 2.99156 2.46553 2.31174C3.19067 1.63192 4.17417 1.25 5.19967 1.25ZM5.06634 2.5C4.42982 2.5 3.81937 2.73705 3.36928 3.15901C2.9192 3.58097 2.66634 4.15326 2.66634 4.75V10.25C2.66634 11.4937 3.73967 12.5 5.06634 12.5H10.933C11.5695 12.5 12.18 12.2629 12.6301 11.841C13.0802 11.419 13.333 10.8467 13.333 10.25V4.75C13.333 3.50625 12.2597 2.5 10.933 2.5H5.06634ZM11.4997 3.4375C11.7207 3.4375 11.9326 3.51981 12.0889 3.66632C12.2452 3.81284 12.333 4.01155 12.333 4.21875C12.333 4.42595 12.2452 4.62466 12.0889 4.77118C11.9326 4.91769 11.7207 5 11.4997 5C11.2787 5 11.0667 4.91769 10.9104 4.77118C10.7541 4.62466 10.6663 4.42595 10.6663 4.21875C10.6663 4.01155 10.7541 3.81284 10.9104 3.66632C11.0667 3.51981 11.2787 3.4375 11.4997 3.4375ZM7.99967 4.375C8.88373 4.375 9.73158 4.70424 10.3567 5.29029C10.9818 5.87634 11.333 6.6712 11.333 7.5C11.333 8.3288 10.9818 9.12366 10.3567 9.70971C9.73158 10.2958 8.88373 10.625 7.99967 10.625C7.11562 10.625 6.26777 10.2958 5.64265 9.70971C5.01753 9.12366 4.66634 8.3288 4.66634 7.5C4.66634 6.6712 5.01753 5.87634 5.64265 5.29029C6.26777 4.70424 7.11562 4.375 7.99967 4.375ZM7.99967 5.625C7.46924 5.625 6.96053 5.82254 6.58546 6.17417C6.21039 6.52581 5.99967 7.00272 5.99967 7.5C5.99967 7.99728 6.21039 8.47419 6.58546 8.82583C6.96053 9.17746 7.46924 9.375 7.99967 9.375C8.53011 9.375 9.03882 9.17746 9.41389 8.82583C9.78896 8.47419 9.99967 7.99728 9.99967 7.5C9.99967 7.00272 9.78896 6.52581 9.41389 6.17417C9.03882 5.82254 8.53011 5.625 7.99967 5.625Z" fill="white"/>
</svg>
