<svg width="15" height="15" viewBox="0 0 15 15" fill="none" xmlns="http://www.w3.org/2000/svg">
<path d="M11.875 1.875C12.2065 1.875 12.5245 2.0067 12.7589 2.24112C12.9933 2.47554 13.125 2.79348 13.125 3.125V11.875C13.125 12.2065 12.9933 12.5245 12.7589 12.7589C12.5245 12.9933 12.2065 13.125 11.875 13.125H3.125C2.79348 13.125 2.47554 12.9933 2.24112 12.7589C2.0067 12.5245 1.875 12.2065 1.875 11.875V3.125C1.875 2.79348 2.0067 2.47554 2.24112 2.24112C2.47554 2.0067 2.79348 1.875 3.125 1.875H11.875ZM11.5625 11.5625V8.25C11.5625 7.70962 11.3478 7.19138 10.9657 6.80927C10.5836 6.42716 10.0654 6.2125 9.525 6.2125C8.99375 6.2125 8.375 6.5375 8.075 7.025V6.33125H6.33125V11.5625H8.075V8.48125C8.075 8 8.4625 7.60625 8.94375 7.60625C9.17581 7.60625 9.39837 7.69844 9.56247 7.86253C9.72656 8.02663 9.81875 8.24919 9.81875 8.48125V11.5625H11.5625ZM4.3 5.35C4.57848 5.35 4.84555 5.23938 5.04246 5.04246C5.23938 4.84555 5.35 4.57848 5.35 4.3C5.35 3.71875 4.88125 3.24375 4.3 3.24375C4.01987 3.24375 3.7512 3.35503 3.55312 3.55312C3.35503 3.7512 3.24375 4.01987 3.24375 4.3C3.24375 4.88125 3.71875 5.35 4.3 5.35ZM5.16875 11.5625V6.33125H3.4375V11.5625H5.16875Z" fill="white"/>
</svg>
