<svg width="15" height="15" viewBox="0 0 15 15" fill="none" xmlns="http://www.w3.org/2000/svg">
<path d="M6.25 9.375L9.49375 7.5L6.25 5.625V9.375ZM13.475 4.48125C13.5562 4.775 13.6125 5.16875 13.65 5.66875C13.6938 6.16875 13.7125 6.6 13.7125 6.975L13.75 7.5C13.75 8.86875 13.65 9.875 13.475 10.5188C13.3187 11.0812 12.9563 11.4437 12.3938 11.6C12.1 11.6812 11.5625 11.7375 10.7375 11.775C9.925 11.8188 9.18125 11.8375 8.49375 11.8375L7.5 11.875C4.88125 11.875 3.25 11.775 2.60625 11.6C2.04375 11.4437 1.68125 11.0812 1.525 10.5188C1.44375 10.225 1.3875 9.83125 1.35 9.33125C1.30625 8.83125 1.2875 8.4 1.2875 8.025L1.25 7.5C1.25 6.13125 1.35 5.125 1.525 4.48125C1.68125 3.91875 2.04375 3.55625 2.60625 3.4C2.9 3.31875 3.4375 3.2625 4.2625 3.225C5.075 3.18125 5.81875 3.1625 6.50625 3.1625L7.5 3.125C10.1187 3.125 11.75 3.225 12.3938 3.4C12.9563 3.55625 13.3187 3.91875 13.475 4.48125Z" fill="white"/>
</svg>
